<mxfile host="app.diagrams.net" modified="2020-11-12T10:45:03.362Z" agent="5.0 (Windows NT 10.0; Win64; x64) AppleWebKit/537.36 (KHTML, like Gecko) Chrome/86.0.4240.193 Safari/537.36" etag="49KGRcq_gntDRGTabhYD" version="13.9.7" type="github">
  <diagram id="dlPyGVZWOMXmCcsLipJ7" name="Page-1">
    <mxGraphModel dx="1422" dy="794" grid="1" gridSize="10" guides="1" tooltips="1" connect="1" arrows="1" fold="1" page="1" pageScale="1" pageWidth="827" pageHeight="1169" math="0" shadow="0">
      <root>
        <mxCell id="0" />
        <mxCell id="1" parent="0" />
        <mxCell id="0HeMoX-j_anCmpWmwLnt-1" value="1C: Университет ПРОФ" style="swimlane;fontStyle=1;align=center;verticalAlign=top;childLayout=stackLayout;horizontal=1;startSize=26;horizontalStack=0;resizeParent=1;resizeParentMax=0;resizeLast=0;collapsible=1;marginBottom=0;fillColor=#ffcd28;strokeColor=#d79b00;gradientColor=#ffa500;" parent="1" vertex="1">
          <mxGeometry x="910" y="750" width="290" height="104" as="geometry">
            <mxRectangle x="840" y="550" width="320" height="26" as="alternateBounds" />
          </mxGeometry>
        </mxCell>
        <mxCell id="0HeMoX-j_anCmpWmwLnt-2" value="Двухсторонний обмен" style="swimlane;fontStyle=0;childLayout=stackLayout;horizontal=1;startSize=26;fillColor=none;horizontalStack=0;resizeParent=1;resizeParentMax=0;resizeLast=0;collapsible=1;marginBottom=0;" parent="0HeMoX-j_anCmpWmwLnt-1" vertex="1" collapsed="1">
          <mxGeometry y="26" width="290" height="26" as="geometry">
            <mxRectangle y="78" width="290" height="70" as="alternateBounds" />
          </mxGeometry>
        </mxCell>
        <mxCell id="0HeMoX-j_anCmpWmwLnt-6" value="Только передает" style="swimlane;fontStyle=0;childLayout=stackLayout;horizontal=1;startSize=26;fillColor=none;horizontalStack=0;resizeParent=1;resizeParentMax=0;resizeLast=0;collapsible=1;marginBottom=0;" parent="0HeMoX-j_anCmpWmwLnt-1" vertex="1" collapsed="1">
          <mxGeometry y="52" width="290" height="26" as="geometry">
            <mxRectangle y="52" width="290" height="68" as="alternateBounds" />
          </mxGeometry>
        </mxCell>
        <mxCell id="0HeMoX-j_anCmpWmwLnt-4" value="Только принимает" style="swimlane;fontStyle=0;childLayout=stackLayout;horizontal=1;startSize=26;fillColor=none;horizontalStack=0;resizeParent=1;resizeParentMax=0;resizeLast=0;collapsible=1;marginBottom=0;" parent="0HeMoX-j_anCmpWmwLnt-1" vertex="1" collapsed="1">
          <mxGeometry y="78" width="290" height="26" as="geometry">
            <mxRectangle y="26" width="290" height="74" as="alternateBounds" />
          </mxGeometry>
        </mxCell>
        <mxCell id="0HeMoX-j_anCmpWmwLnt-16" value="1С: ДГУ" style="swimlane;fontStyle=1;align=center;verticalAlign=top;childLayout=stackLayout;horizontal=1;startSize=26;horizontalStack=0;resizeParent=1;resizeParentMax=0;resizeLast=0;collapsible=1;marginBottom=0;gradientColor=#97d077;fillColor=#d5e8d4;strokeColor=#82b366;" parent="1" vertex="1">
          <mxGeometry x="530" y="606" width="290" height="104" as="geometry">
            <mxRectangle x="537" y="570" width="320" height="26" as="alternateBounds" />
          </mxGeometry>
        </mxCell>
        <mxCell id="0HeMoX-j_anCmpWmwLnt-17" value="Двухсторонний обмен" style="swimlane;fontStyle=0;childLayout=stackLayout;horizontal=1;startSize=26;fillColor=none;horizontalStack=0;resizeParent=1;resizeParentMax=0;resizeLast=0;collapsible=1;marginBottom=0;" parent="0HeMoX-j_anCmpWmwLnt-16" vertex="1" collapsed="1">
          <mxGeometry y="26" width="290" height="26" as="geometry">
            <mxRectangle y="78" width="290" height="130" as="alternateBounds" />
          </mxGeometry>
        </mxCell>
        <mxCell id="0HeMoX-j_anCmpWmwLnt-18" value="Приказы (подписание согласовани)&#xa;Графики&#xa;Подписание ЭЦП (Ректор) пакета документа по Образовательной программе &#xa;" style="text;strokeColor=none;fillColor=none;align=left;verticalAlign=top;spacingLeft=4;spacingRight=4;overflow=hidden;rotatable=0;points=[[0,0.5],[1,0.5]];portConstraint=eastwest;whiteSpace=wrap;" parent="0HeMoX-j_anCmpWmwLnt-17" vertex="1">
          <mxGeometry y="26" width="290" height="104" as="geometry" />
        </mxCell>
        <mxCell id="0HeMoX-j_anCmpWmwLnt-21" value="Только передает" style="swimlane;fontStyle=0;childLayout=stackLayout;horizontal=1;startSize=26;fillColor=none;horizontalStack=0;resizeParent=1;resizeParentMax=0;resizeLast=0;collapsible=1;marginBottom=0;" parent="0HeMoX-j_anCmpWmwLnt-16" vertex="1" collapsed="1">
          <mxGeometry y="52" width="290" height="26" as="geometry">
            <mxRectangle y="26" width="290" height="100" as="alternateBounds" />
          </mxGeometry>
        </mxCell>
        <mxCell id="0HeMoX-j_anCmpWmwLnt-19" value="Только принимает" style="swimlane;fontStyle=0;childLayout=stackLayout;horizontal=1;startSize=26;fillColor=none;horizontalStack=0;resizeParent=1;resizeParentMax=0;resizeLast=0;collapsible=1;marginBottom=0;" parent="0HeMoX-j_anCmpWmwLnt-16" vertex="1" collapsed="1">
          <mxGeometry y="78" width="290" height="26" as="geometry">
            <mxRectangle y="52" width="290" height="100" as="alternateBounds" />
          </mxGeometry>
        </mxCell>
        <mxCell id="0HeMoX-j_anCmpWmwLnt-20" value="Выставление задач для МФЦ(для создания приказов)" style="text;strokeColor=none;fillColor=none;align=left;verticalAlign=top;spacingLeft=4;spacingRight=4;overflow=hidden;rotatable=0;points=[[0,0.5],[1,0.5]];portConstraint=eastwest;whiteSpace=wrap;" parent="0HeMoX-j_anCmpWmwLnt-19" vertex="1">
          <mxGeometry y="26" width="290" height="74" as="geometry" />
        </mxCell>
        <mxCell id="0HeMoX-j_anCmpWmwLnt-23" value="1С: БГУ" style="swimlane;fontStyle=1;align=center;verticalAlign=top;childLayout=stackLayout;horizontal=1;startSize=26;horizontalStack=0;resizeParent=1;resizeParentMax=0;resizeLast=0;collapsible=1;marginBottom=0;fillColor=#d0cee2;strokeColor=#56517e;" parent="1" vertex="1" collapsed="1">
          <mxGeometry x="810" y="340" width="320" height="26" as="geometry">
            <mxRectangle x="270" y="280" width="290" height="326" as="alternateBounds" />
          </mxGeometry>
        </mxCell>
        <mxCell id="0HeMoX-j_anCmpWmwLnt-24" value="Двухсторонний обмен" style="swimlane;fontStyle=0;childLayout=stackLayout;horizontal=1;startSize=26;fillColor=none;horizontalStack=0;resizeParent=1;resizeParentMax=0;resizeLast=0;collapsible=1;marginBottom=0;" parent="0HeMoX-j_anCmpWmwLnt-23" vertex="1">
          <mxGeometry y="26" width="320" height="300" as="geometry">
            <mxRectangle y="26" width="290" height="26" as="alternateBounds" />
          </mxGeometry>
        </mxCell>
        <mxCell id="0HeMoX-j_anCmpWmwLnt-25" value="Физ. лицо&#xa;Договор + доп соглашения (из &quot;Заявка на договор&quot;)&#xa;" style="text;strokeColor=none;fillColor=none;align=left;verticalAlign=top;spacingLeft=4;spacingRight=4;overflow=hidden;rotatable=0;points=[[0,0.5],[1,0.5]];portConstraint=eastwest;whiteSpace=wrap;" parent="0HeMoX-j_anCmpWmwLnt-24" vertex="1">
          <mxGeometry y="26" width="320" height="74" as="geometry" />
        </mxCell>
        <mxCell id="0HeMoX-j_anCmpWmwLnt-26" value="Только принимает" style="swimlane;fontStyle=0;childLayout=stackLayout;horizontal=1;startSize=26;fillColor=none;horizontalStack=0;resizeParent=1;resizeParentMax=0;resizeLast=0;collapsible=1;marginBottom=0;" parent="0HeMoX-j_anCmpWmwLnt-24" vertex="1">
          <mxGeometry y="100" width="320" height="200" as="geometry" />
        </mxCell>
        <mxCell id="0HeMoX-j_anCmpWmwLnt-27" value="+ field: type" style="text;strokeColor=none;fillColor=none;align=left;verticalAlign=top;spacingLeft=4;spacingRight=4;overflow=hidden;rotatable=0;points=[[0,0.5],[1,0.5]];portConstraint=eastwest;" parent="0HeMoX-j_anCmpWmwLnt-26" vertex="1">
          <mxGeometry y="26" width="320" height="74" as="geometry" />
        </mxCell>
        <mxCell id="0HeMoX-j_anCmpWmwLnt-28" value="Только передает" style="swimlane;fontStyle=0;childLayout=stackLayout;horizontal=1;startSize=26;fillColor=none;horizontalStack=0;resizeParent=1;resizeParentMax=0;resizeLast=0;collapsible=1;marginBottom=0;" parent="0HeMoX-j_anCmpWmwLnt-26" vertex="1">
          <mxGeometry y="100" width="320" height="100" as="geometry" />
        </mxCell>
        <mxCell id="0HeMoX-j_anCmpWmwLnt-29" value="Договор оплаты по абитуриенту&#xa;Документ Оплата по договору" style="text;strokeColor=none;fillColor=none;align=left;verticalAlign=top;spacingLeft=4;spacingRight=4;overflow=hidden;rotatable=0;points=[[0,0.5],[1,0.5]];portConstraint=eastwest;" parent="0HeMoX-j_anCmpWmwLnt-28" vertex="1">
          <mxGeometry y="26" width="320" height="74" as="geometry" />
        </mxCell>
        <mxCell id="0HeMoX-j_anCmpWmwLnt-30" value="1С: АСР" style="swimlane;fontStyle=1;align=center;verticalAlign=top;childLayout=stackLayout;horizontal=1;startSize=26;horizontalStack=0;resizeParent=1;resizeParentMax=0;resizeLast=0;collapsible=1;marginBottom=0;fillColor=#fad9d5;strokeColor=#ae4132;" parent="1" vertex="1">
          <mxGeometry x="530" y="750" width="290" height="104" as="geometry">
            <mxRectangle x="530" y="750" width="320" height="26" as="alternateBounds" />
          </mxGeometry>
        </mxCell>
        <mxCell id="0HeMoX-j_anCmpWmwLnt-31" value="Двухсторонний обмен" style="swimlane;fontStyle=0;childLayout=stackLayout;horizontal=1;startSize=26;fillColor=none;horizontalStack=0;resizeParent=1;resizeParentMax=0;resizeLast=0;collapsible=1;marginBottom=0;" parent="0HeMoX-j_anCmpWmwLnt-30" vertex="1" collapsed="1">
          <mxGeometry y="26" width="290" height="26" as="geometry">
            <mxRectangle y="26" width="290" height="100" as="alternateBounds" />
          </mxGeometry>
        </mxCell>
        <mxCell id="0HeMoX-j_anCmpWmwLnt-32" value="+ field: type" style="text;strokeColor=none;fillColor=none;align=left;verticalAlign=top;spacingLeft=4;spacingRight=4;overflow=hidden;rotatable=0;points=[[0,0.5],[1,0.5]];portConstraint=eastwest;" parent="0HeMoX-j_anCmpWmwLnt-31" vertex="1">
          <mxGeometry y="26" width="290" height="74" as="geometry" />
        </mxCell>
        <mxCell id="0HeMoX-j_anCmpWmwLnt-35" value="Только передает" style="swimlane;fontStyle=0;childLayout=stackLayout;horizontal=1;startSize=26;fillColor=none;horizontalStack=0;resizeParent=1;resizeParentMax=0;resizeLast=0;collapsible=1;marginBottom=0;" parent="0HeMoX-j_anCmpWmwLnt-30" vertex="1" collapsed="1">
          <mxGeometry y="52" width="290" height="26" as="geometry">
            <mxRectangle y="26" width="290" height="100" as="alternateBounds" />
          </mxGeometry>
        </mxCell>
        <mxCell id="0HeMoX-j_anCmpWmwLnt-36" value="+ field: type" style="text;strokeColor=none;fillColor=none;align=left;verticalAlign=top;spacingLeft=4;spacingRight=4;overflow=hidden;rotatable=0;points=[[0,0.5],[1,0.5]];portConstraint=eastwest;" parent="0HeMoX-j_anCmpWmwLnt-35" vertex="1">
          <mxGeometry y="26" width="290" height="74" as="geometry" />
        </mxCell>
        <mxCell id="0HeMoX-j_anCmpWmwLnt-33" value="Только принимает" style="swimlane;fontStyle=0;childLayout=stackLayout;horizontal=1;startSize=26;fillColor=none;horizontalStack=0;resizeParent=1;resizeParentMax=0;resizeLast=0;collapsible=1;marginBottom=0;" parent="0HeMoX-j_anCmpWmwLnt-30" vertex="1" collapsed="1">
          <mxGeometry y="78" width="290" height="26" as="geometry">
            <mxRectangle y="78" width="290" height="100" as="alternateBounds" />
          </mxGeometry>
        </mxCell>
        <mxCell id="0HeMoX-j_anCmpWmwLnt-34" value="+ field: type" style="text;strokeColor=none;fillColor=none;align=left;verticalAlign=top;spacingLeft=4;spacingRight=4;overflow=hidden;rotatable=0;points=[[0,0.5],[1,0.5]];portConstraint=eastwest;" parent="0HeMoX-j_anCmpWmwLnt-33" vertex="1">
          <mxGeometry y="26" width="290" height="74" as="geometry" />
        </mxCell>
        <mxCell id="0HeMoX-j_anCmpWmwLnt-37" value="1С:БИТ ОБЩЕЖИТИЕ" style="swimlane;fontStyle=1;align=center;verticalAlign=top;childLayout=stackLayout;horizontal=1;startSize=26;horizontalStack=0;resizeParent=1;resizeParentMax=0;resizeLast=0;collapsible=1;marginBottom=0;swimlaneFillColor=#ffffff;fillColor=#dae8fc;strokeColor=#6c8ebf;gradientColor=#7ea6e0;" parent="1" vertex="1" collapsed="1">
          <mxGeometry x="1160" y="340" width="320" height="26" as="geometry">
            <mxRectangle x="270" y="190" width="290" height="326" as="alternateBounds" />
          </mxGeometry>
        </mxCell>
        <mxCell id="0HeMoX-j_anCmpWmwLnt-38" value="Двухсторонний обмен" style="swimlane;fontStyle=0;childLayout=stackLayout;horizontal=1;startSize=26;fillColor=none;horizontalStack=0;resizeParent=1;resizeParentMax=0;resizeLast=0;collapsible=1;marginBottom=0;" parent="0HeMoX-j_anCmpWmwLnt-37" vertex="1">
          <mxGeometry y="26" width="320" height="300" as="geometry">
            <mxRectangle y="26" width="290" height="26" as="alternateBounds" />
          </mxGeometry>
        </mxCell>
        <mxCell id="0HeMoX-j_anCmpWmwLnt-39" value="+ field: type" style="text;strokeColor=none;fillColor=none;align=left;verticalAlign=top;spacingLeft=4;spacingRight=4;overflow=hidden;rotatable=0;points=[[0,0.5],[1,0.5]];portConstraint=eastwest;" parent="0HeMoX-j_anCmpWmwLnt-38" vertex="1">
          <mxGeometry y="26" width="320" height="74" as="geometry" />
        </mxCell>
        <mxCell id="0HeMoX-j_anCmpWmwLnt-40" value="Только принимает" style="swimlane;fontStyle=0;childLayout=stackLayout;horizontal=1;startSize=26;fillColor=none;horizontalStack=0;resizeParent=1;resizeParentMax=0;resizeLast=0;collapsible=1;marginBottom=0;" parent="0HeMoX-j_anCmpWmwLnt-38" vertex="1">
          <mxGeometry y="100" width="320" height="200" as="geometry" />
        </mxCell>
        <mxCell id="0HeMoX-j_anCmpWmwLnt-41" value="Физ. лицо (3 варианта)&#xa;Создание документа &quot;Планируемый заезд&quot;&#xa;Обновление персональных данных по событию&#xa;" style="text;strokeColor=none;fillColor=none;align=left;verticalAlign=top;spacingLeft=4;spacingRight=4;overflow=hidden;rotatable=0;points=[[0,0.5],[1,0.5]];portConstraint=eastwest;" parent="0HeMoX-j_anCmpWmwLnt-40" vertex="1">
          <mxGeometry y="26" width="320" height="74" as="geometry" />
        </mxCell>
        <mxCell id="0HeMoX-j_anCmpWmwLnt-42" value="Только передает" style="swimlane;fontStyle=0;childLayout=stackLayout;horizontal=1;startSize=26;fillColor=none;horizontalStack=0;resizeParent=1;resizeParentMax=0;resizeLast=0;collapsible=1;marginBottom=0;" parent="0HeMoX-j_anCmpWmwLnt-40" vertex="1">
          <mxGeometry y="100" width="320" height="100" as="geometry" />
        </mxCell>
        <mxCell id="0HeMoX-j_anCmpWmwLnt-43" value="+ field: type" style="text;strokeColor=none;fillColor=none;align=left;verticalAlign=top;spacingLeft=4;spacingRight=4;overflow=hidden;rotatable=0;points=[[0,0.5],[1,0.5]];portConstraint=eastwest;" parent="0HeMoX-j_anCmpWmwLnt-42" vertex="1">
          <mxGeometry y="26" width="320" height="74" as="geometry" />
        </mxCell>
        <mxCell id="0HeMoX-j_anCmpWmwLnt-44" value="СЕРВЕР АВТОРИЗАЦИИ (СА)" style="swimlane;fontStyle=1;align=center;verticalAlign=top;childLayout=stackLayout;horizontal=1;startSize=26;horizontalStack=0;resizeParent=1;resizeParentMax=0;resizeLast=0;collapsible=1;marginBottom=0;" parent="1" vertex="1" collapsed="1">
          <mxGeometry x="79" y="620" width="321" height="26" as="geometry">
            <mxRectangle x="270" y="670" width="290" height="326" as="alternateBounds" />
          </mxGeometry>
        </mxCell>
        <mxCell id="0HeMoX-j_anCmpWmwLnt-45" value="Двухсторонний обмен" style="swimlane;fontStyle=0;childLayout=stackLayout;horizontal=1;startSize=26;fillColor=none;horizontalStack=0;resizeParent=1;resizeParentMax=0;resizeLast=0;collapsible=1;marginBottom=0;" parent="0HeMoX-j_anCmpWmwLnt-44" vertex="1">
          <mxGeometry y="26" width="321" height="300" as="geometry">
            <mxRectangle y="26" width="290" height="26" as="alternateBounds" />
          </mxGeometry>
        </mxCell>
        <mxCell id="0HeMoX-j_anCmpWmwLnt-67" value="+ field: type" style="text;strokeColor=none;fillColor=none;align=left;verticalAlign=top;spacingLeft=4;spacingRight=4;overflow=hidden;rotatable=0;points=[[0,0.5],[1,0.5]];portConstraint=eastwest;" parent="0HeMoX-j_anCmpWmwLnt-45" vertex="1">
          <mxGeometry y="26" width="321" height="74" as="geometry" />
        </mxCell>
        <mxCell id="0HeMoX-j_anCmpWmwLnt-47" value="Только принимает" style="swimlane;fontStyle=0;childLayout=stackLayout;horizontal=1;startSize=26;fillColor=none;horizontalStack=0;resizeParent=1;resizeParentMax=0;resizeLast=0;collapsible=1;marginBottom=0;" parent="0HeMoX-j_anCmpWmwLnt-45" vertex="1">
          <mxGeometry y="100" width="321" height="200" as="geometry">
            <mxRectangle y="26" width="290" height="26" as="alternateBounds" />
          </mxGeometry>
        </mxCell>
        <mxCell id="0HeMoX-j_anCmpWmwLnt-48" value="+ field: type" style="text;strokeColor=none;fillColor=none;align=left;verticalAlign=top;spacingLeft=4;spacingRight=4;overflow=hidden;rotatable=0;points=[[0,0.5],[1,0.5]];portConstraint=eastwest;" parent="0HeMoX-j_anCmpWmwLnt-47" vertex="1">
          <mxGeometry y="26" width="321" height="74" as="geometry" />
        </mxCell>
        <mxCell id="0HeMoX-j_anCmpWmwLnt-49" value="Только передает" style="swimlane;fontStyle=0;childLayout=stackLayout;horizontal=1;startSize=26;fillColor=none;horizontalStack=0;resizeParent=1;resizeParentMax=0;resizeLast=0;collapsible=1;marginBottom=0;" parent="0HeMoX-j_anCmpWmwLnt-47" vertex="1">
          <mxGeometry y="100" width="321" height="100" as="geometry" />
        </mxCell>
        <mxCell id="0HeMoX-j_anCmpWmwLnt-50" value="+ field: type" style="text;strokeColor=none;fillColor=none;align=left;verticalAlign=top;spacingLeft=4;spacingRight=4;overflow=hidden;rotatable=0;points=[[0,0.5],[1,0.5]];portConstraint=eastwest;" parent="0HeMoX-j_anCmpWmwLnt-49" vertex="1">
          <mxGeometry y="26" width="321" height="74" as="geometry" />
        </mxCell>
        <mxCell id="0HeMoX-j_anCmpWmwLnt-51" value="СЕРВЕР ПЕРСОНАЛЬНЫХ ДАННЫХ (СПД)" style="swimlane;fontStyle=1;align=center;verticalAlign=top;childLayout=stackLayout;horizontal=1;startSize=26;horizontalStack=0;resizeParent=1;resizeParentMax=0;resizeLast=0;collapsible=1;marginBottom=0;" parent="1" vertex="1" collapsed="1">
          <mxGeometry x="80" y="660" width="320" height="26" as="geometry">
            <mxRectangle x="1220" y="1140" width="290" height="326" as="alternateBounds" />
          </mxGeometry>
        </mxCell>
        <mxCell id="0HeMoX-j_anCmpWmwLnt-52" value="Двухсторонний обмен" style="swimlane;fontStyle=0;childLayout=stackLayout;horizontal=1;startSize=26;fillColor=none;horizontalStack=0;resizeParent=1;resizeParentMax=0;resizeLast=0;collapsible=1;marginBottom=0;" parent="0HeMoX-j_anCmpWmwLnt-51" vertex="1">
          <mxGeometry y="26" width="320" height="300" as="geometry">
            <mxRectangle y="26" width="290" height="26" as="alternateBounds" />
          </mxGeometry>
        </mxCell>
        <mxCell id="0HeMoX-j_anCmpWmwLnt-53" value="+ field: type" style="text;strokeColor=none;fillColor=none;align=left;verticalAlign=top;spacingLeft=4;spacingRight=4;overflow=hidden;rotatable=0;points=[[0,0.5],[1,0.5]];portConstraint=eastwest;" parent="0HeMoX-j_anCmpWmwLnt-52" vertex="1">
          <mxGeometry y="26" width="320" height="74" as="geometry" />
        </mxCell>
        <mxCell id="0HeMoX-j_anCmpWmwLnt-54" value="Только принимает" style="swimlane;fontStyle=0;childLayout=stackLayout;horizontal=1;startSize=26;fillColor=none;horizontalStack=0;resizeParent=1;resizeParentMax=0;resizeLast=0;collapsible=1;marginBottom=0;" parent="0HeMoX-j_anCmpWmwLnt-52" vertex="1">
          <mxGeometry y="100" width="320" height="200" as="geometry" />
        </mxCell>
        <mxCell id="0HeMoX-j_anCmpWmwLnt-55" value="+ field: type" style="text;strokeColor=none;fillColor=none;align=left;verticalAlign=top;spacingLeft=4;spacingRight=4;overflow=hidden;rotatable=0;points=[[0,0.5],[1,0.5]];portConstraint=eastwest;" parent="0HeMoX-j_anCmpWmwLnt-54" vertex="1">
          <mxGeometry y="26" width="320" height="74" as="geometry" />
        </mxCell>
        <mxCell id="0HeMoX-j_anCmpWmwLnt-56" value="Только передает" style="swimlane;fontStyle=0;childLayout=stackLayout;horizontal=1;startSize=26;fillColor=none;horizontalStack=0;resizeParent=1;resizeParentMax=0;resizeLast=0;collapsible=1;marginBottom=0;" parent="0HeMoX-j_anCmpWmwLnt-54" vertex="1">
          <mxGeometry y="100" width="320" height="100" as="geometry" />
        </mxCell>
        <mxCell id="0HeMoX-j_anCmpWmwLnt-57" value="+ field: type" style="text;strokeColor=none;fillColor=none;align=left;verticalAlign=top;spacingLeft=4;spacingRight=4;overflow=hidden;rotatable=0;points=[[0,0.5],[1,0.5]];portConstraint=eastwest;" parent="0HeMoX-j_anCmpWmwLnt-56" vertex="1">
          <mxGeometry y="26" width="320" height="74" as="geometry" />
        </mxCell>
        <mxCell id="0HeMoX-j_anCmpWmwLnt-58" value="lk1C.tsutmb.ru" style="swimlane;fontStyle=1;align=center;verticalAlign=top;childLayout=stackLayout;horizontal=1;startSize=26;horizontalStack=0;resizeParent=1;resizeParentMax=0;resizeLast=0;collapsible=1;marginBottom=0;" parent="1" vertex="1" collapsed="1">
          <mxGeometry x="79" y="540" width="321" height="26" as="geometry">
            <mxRectangle x="1320" y="640" width="290" height="406" as="alternateBounds" />
          </mxGeometry>
        </mxCell>
        <mxCell id="0HeMoX-j_anCmpWmwLnt-59" value="Двухсторонний обмен" style="swimlane;fontStyle=0;childLayout=stackLayout;horizontal=1;startSize=26;fillColor=none;horizontalStack=0;resizeParent=1;resizeParentMax=0;resizeLast=0;collapsible=1;marginBottom=0;" parent="0HeMoX-j_anCmpWmwLnt-58" vertex="1">
          <mxGeometry y="26" width="321" height="380" as="geometry">
            <mxRectangle y="26" width="290" height="26" as="alternateBounds" />
          </mxGeometry>
        </mxCell>
        <mxCell id="0HeMoX-j_anCmpWmwLnt-60" value="Физ.лицо&#xa;Анкета&#xa;Индивидуальные достижения&#xa;Заявление абитуриента&#xa;Согласие на поступление&#xa;Договор&#xa;Пакет документов&#xa;Статусы&#xa;ПК&#xa;Справочники&#xa;" style="text;strokeColor=none;fillColor=none;align=left;verticalAlign=top;spacingLeft=4;spacingRight=4;overflow=hidden;rotatable=0;points=[[0,0.5],[1,0.5]];portConstraint=eastwest;" parent="0HeMoX-j_anCmpWmwLnt-59" vertex="1">
          <mxGeometry y="26" width="321" height="154" as="geometry" />
        </mxCell>
        <mxCell id="0HeMoX-j_anCmpWmwLnt-61" value="Только принимает" style="swimlane;fontStyle=0;childLayout=stackLayout;horizontal=1;startSize=26;fillColor=none;horizontalStack=0;resizeParent=1;resizeParentMax=0;resizeLast=0;collapsible=1;marginBottom=0;" parent="0HeMoX-j_anCmpWmwLnt-59" vertex="1">
          <mxGeometry y="180" width="321" height="200" as="geometry" />
        </mxCell>
        <mxCell id="0HeMoX-j_anCmpWmwLnt-62" value="+ field: type" style="text;strokeColor=none;fillColor=none;align=left;verticalAlign=top;spacingLeft=4;spacingRight=4;overflow=hidden;rotatable=0;points=[[0,0.5],[1,0.5]];portConstraint=eastwest;" parent="0HeMoX-j_anCmpWmwLnt-61" vertex="1">
          <mxGeometry y="26" width="321" height="74" as="geometry" />
        </mxCell>
        <mxCell id="0HeMoX-j_anCmpWmwLnt-63" value="Только передает" style="swimlane;fontStyle=0;childLayout=stackLayout;horizontal=1;startSize=26;fillColor=none;horizontalStack=0;resizeParent=1;resizeParentMax=0;resizeLast=0;collapsible=1;marginBottom=0;" parent="0HeMoX-j_anCmpWmwLnt-61" vertex="1">
          <mxGeometry y="100" width="321" height="100" as="geometry" />
        </mxCell>
        <mxCell id="0HeMoX-j_anCmpWmwLnt-64" value="+ field: type" style="text;strokeColor=none;fillColor=none;align=left;verticalAlign=top;spacingLeft=4;spacingRight=4;overflow=hidden;rotatable=0;points=[[0,0.5],[1,0.5]];portConstraint=eastwest;" parent="0HeMoX-j_anCmpWmwLnt-63" vertex="1">
          <mxGeometry y="26" width="321" height="74" as="geometry" />
        </mxCell>
        <mxCell id="0HeMoX-j_anCmpWmwLnt-83" value="1C: Университет ПРОФ" style="swimlane;fontStyle=1;align=center;verticalAlign=top;childLayout=stackLayout;horizontal=1;startSize=26;horizontalStack=0;resizeParent=1;resizeParentMax=0;resizeLast=0;collapsible=1;marginBottom=0;fillColor=#e3c800;strokeColor=#B09500;fontColor=#ffffff;" parent="1" vertex="1">
          <mxGeometry x="360" y="1850" width="290" height="326" as="geometry" />
        </mxCell>
        <mxCell id="0HeMoX-j_anCmpWmwLnt-84" value="Двухсторонний обмен" style="swimlane;fontStyle=0;childLayout=stackLayout;horizontal=1;startSize=26;fillColor=none;horizontalStack=0;resizeParent=1;resizeParentMax=0;resizeLast=0;collapsible=1;marginBottom=0;" parent="0HeMoX-j_anCmpWmwLnt-83" vertex="1">
          <mxGeometry y="26" width="290" height="300" as="geometry">
            <mxRectangle y="26" width="290" height="26" as="alternateBounds" />
          </mxGeometry>
        </mxCell>
        <mxCell id="0HeMoX-j_anCmpWmwLnt-85" value="+ field: type" style="text;strokeColor=none;fillColor=none;align=left;verticalAlign=top;spacingLeft=4;spacingRight=4;overflow=hidden;rotatable=0;points=[[0,0.5],[1,0.5]];portConstraint=eastwest;" parent="0HeMoX-j_anCmpWmwLnt-84" vertex="1">
          <mxGeometry y="26" width="290" height="74" as="geometry" />
        </mxCell>
        <mxCell id="0HeMoX-j_anCmpWmwLnt-86" value="Только принимает" style="swimlane;fontStyle=0;childLayout=stackLayout;horizontal=1;startSize=26;fillColor=none;horizontalStack=0;resizeParent=1;resizeParentMax=0;resizeLast=0;collapsible=1;marginBottom=0;" parent="0HeMoX-j_anCmpWmwLnt-84" vertex="1">
          <mxGeometry y="100" width="290" height="200" as="geometry" />
        </mxCell>
        <mxCell id="0HeMoX-j_anCmpWmwLnt-87" value="+ field: type" style="text;strokeColor=none;fillColor=none;align=left;verticalAlign=top;spacingLeft=4;spacingRight=4;overflow=hidden;rotatable=0;points=[[0,0.5],[1,0.5]];portConstraint=eastwest;" parent="0HeMoX-j_anCmpWmwLnt-86" vertex="1">
          <mxGeometry y="26" width="290" height="74" as="geometry" />
        </mxCell>
        <mxCell id="0HeMoX-j_anCmpWmwLnt-88" value="Только передает" style="swimlane;fontStyle=0;childLayout=stackLayout;horizontal=1;startSize=26;fillColor=none;horizontalStack=0;resizeParent=1;resizeParentMax=0;resizeLast=0;collapsible=1;marginBottom=0;" parent="0HeMoX-j_anCmpWmwLnt-86" vertex="1">
          <mxGeometry y="100" width="290" height="100" as="geometry">
            <mxRectangle y="100" width="290" height="26" as="alternateBounds" />
          </mxGeometry>
        </mxCell>
        <mxCell id="0HeMoX-j_anCmpWmwLnt-89" value="+ field: type" style="text;strokeColor=none;fillColor=none;align=left;verticalAlign=top;spacingLeft=4;spacingRight=4;overflow=hidden;rotatable=0;points=[[0,0.5],[1,0.5]];portConstraint=eastwest;" parent="0HeMoX-j_anCmpWmwLnt-88" vertex="1">
          <mxGeometry y="26" width="290" height="74" as="geometry" />
        </mxCell>
        <mxCell id="kD1ETYicVpEtqTqWb3Om-1" value="1С: ITIL" style="swimlane;fontStyle=1;align=center;verticalAlign=top;childLayout=stackLayout;horizontal=1;startSize=26;horizontalStack=0;resizeParent=1;resizeParentMax=0;resizeLast=0;collapsible=1;marginBottom=0;gradientColor=#d5739d;fillColor=#e6d0de;strokeColor=#996185;" vertex="1" collapsed="1" parent="1">
          <mxGeometry x="1320" y="80" width="319" height="26" as="geometry">
            <mxRectangle x="270" y="160" width="290" height="326" as="alternateBounds" />
          </mxGeometry>
        </mxCell>
        <mxCell id="kD1ETYicVpEtqTqWb3Om-2" value="Двухсторонний обмен" style="swimlane;fontStyle=0;childLayout=stackLayout;horizontal=1;startSize=26;fillColor=none;horizontalStack=0;resizeParent=1;resizeParentMax=0;resizeLast=0;collapsible=1;marginBottom=0;" vertex="1" parent="kD1ETYicVpEtqTqWb3Om-1">
          <mxGeometry y="26" width="319" height="300" as="geometry">
            <mxRectangle y="26" width="290" height="26" as="alternateBounds" />
          </mxGeometry>
        </mxCell>
        <mxCell id="kD1ETYicVpEtqTqWb3Om-3" value="+ field: type" style="text;strokeColor=none;fillColor=none;align=left;verticalAlign=top;spacingLeft=4;spacingRight=4;overflow=hidden;rotatable=0;points=[[0,0.5],[1,0.5]];portConstraint=eastwest;" vertex="1" parent="kD1ETYicVpEtqTqWb3Om-2">
          <mxGeometry y="26" width="319" height="74" as="geometry" />
        </mxCell>
        <mxCell id="kD1ETYicVpEtqTqWb3Om-4" value="Только принимает" style="swimlane;fontStyle=0;childLayout=stackLayout;horizontal=1;startSize=26;fillColor=none;horizontalStack=0;resizeParent=1;resizeParentMax=0;resizeLast=0;collapsible=1;marginBottom=0;" vertex="1" parent="kD1ETYicVpEtqTqWb3Om-2">
          <mxGeometry y="100" width="319" height="200" as="geometry" />
        </mxCell>
        <mxCell id="kD1ETYicVpEtqTqWb3Om-5" value="+ field: type" style="text;strokeColor=none;fillColor=none;align=left;verticalAlign=top;spacingLeft=4;spacingRight=4;overflow=hidden;rotatable=0;points=[[0,0.5],[1,0.5]];portConstraint=eastwest;" vertex="1" parent="kD1ETYicVpEtqTqWb3Om-4">
          <mxGeometry y="26" width="319" height="74" as="geometry" />
        </mxCell>
        <mxCell id="kD1ETYicVpEtqTqWb3Om-6" value="Только передает" style="swimlane;fontStyle=0;childLayout=stackLayout;horizontal=1;startSize=26;fillColor=none;horizontalStack=0;resizeParent=1;resizeParentMax=0;resizeLast=0;collapsible=1;marginBottom=0;" vertex="1" parent="kD1ETYicVpEtqTqWb3Om-4">
          <mxGeometry y="100" width="319" height="100" as="geometry" />
        </mxCell>
        <mxCell id="kD1ETYicVpEtqTqWb3Om-7" value="+ field: type" style="text;strokeColor=none;fillColor=none;align=left;verticalAlign=top;spacingLeft=4;spacingRight=4;overflow=hidden;rotatable=0;points=[[0,0.5],[1,0.5]];portConstraint=eastwest;" vertex="1" parent="kD1ETYicVpEtqTqWb3Om-6">
          <mxGeometry y="26" width="319" height="74" as="geometry" />
        </mxCell>
        <mxCell id="kD1ETYicVpEtqTqWb3Om-15" value="Двухсторонний обмен" style="swimlane;fontStyle=0;childLayout=stackLayout;horizontal=1;startSize=26;fillColor=none;horizontalStack=0;resizeParent=1;resizeParentMax=0;resizeLast=0;collapsible=1;marginBottom=0;" vertex="1" parent="kD1ETYicVpEtqTqWb3Om-1">
          <mxGeometry y="326" width="319" height="300" as="geometry">
            <mxRectangle y="26" width="290" height="26" as="alternateBounds" />
          </mxGeometry>
        </mxCell>
        <mxCell id="kD1ETYicVpEtqTqWb3Om-16" value="+ field: type" style="text;strokeColor=none;fillColor=none;align=left;verticalAlign=top;spacingLeft=4;spacingRight=4;overflow=hidden;rotatable=0;points=[[0,0.5],[1,0.5]];portConstraint=eastwest;" vertex="1" parent="kD1ETYicVpEtqTqWb3Om-15">
          <mxGeometry y="26" width="319" height="74" as="geometry" />
        </mxCell>
        <mxCell id="kD1ETYicVpEtqTqWb3Om-17" value="Только принимает" style="swimlane;fontStyle=0;childLayout=stackLayout;horizontal=1;startSize=26;fillColor=none;horizontalStack=0;resizeParent=1;resizeParentMax=0;resizeLast=0;collapsible=1;marginBottom=0;" vertex="1" parent="kD1ETYicVpEtqTqWb3Om-15">
          <mxGeometry y="100" width="319" height="200" as="geometry" />
        </mxCell>
        <mxCell id="kD1ETYicVpEtqTqWb3Om-18" value="+ field: type" style="text;strokeColor=none;fillColor=none;align=left;verticalAlign=top;spacingLeft=4;spacingRight=4;overflow=hidden;rotatable=0;points=[[0,0.5],[1,0.5]];portConstraint=eastwest;" vertex="1" parent="kD1ETYicVpEtqTqWb3Om-17">
          <mxGeometry y="26" width="319" height="74" as="geometry" />
        </mxCell>
        <mxCell id="kD1ETYicVpEtqTqWb3Om-19" value="Только передает" style="swimlane;fontStyle=0;childLayout=stackLayout;horizontal=1;startSize=26;fillColor=none;horizontalStack=0;resizeParent=1;resizeParentMax=0;resizeLast=0;collapsible=1;marginBottom=0;" vertex="1" parent="kD1ETYicVpEtqTqWb3Om-17">
          <mxGeometry y="100" width="319" height="100" as="geometry" />
        </mxCell>
        <mxCell id="kD1ETYicVpEtqTqWb3Om-20" value="+ field: type" style="text;strokeColor=none;fillColor=none;align=left;verticalAlign=top;spacingLeft=4;spacingRight=4;overflow=hidden;rotatable=0;points=[[0,0.5],[1,0.5]];portConstraint=eastwest;" vertex="1" parent="kD1ETYicVpEtqTqWb3Om-19">
          <mxGeometry y="26" width="319" height="74" as="geometry" />
        </mxCell>
        <mxCell id="kD1ETYicVpEtqTqWb3Om-8" value="1С: ЗиКГУ" style="swimlane;fontStyle=1;align=center;verticalAlign=top;childLayout=stackLayout;horizontal=1;startSize=26;horizontalStack=0;resizeParent=1;resizeParentMax=0;resizeLast=0;collapsible=1;marginBottom=0;strokeColor=#82b366;gradientColor=#00FFFF;fillColor=#CCFFE6;" vertex="1" collapsed="1" parent="1">
          <mxGeometry x="1320" y="130" width="320" height="26" as="geometry">
            <mxRectangle x="269" y="232" width="290" height="326" as="alternateBounds" />
          </mxGeometry>
        </mxCell>
        <mxCell id="kD1ETYicVpEtqTqWb3Om-9" value="Двухсторонний обмен" style="swimlane;fontStyle=0;childLayout=stackLayout;horizontal=1;startSize=26;fillColor=none;horizontalStack=0;resizeParent=1;resizeParentMax=0;resizeLast=0;collapsible=1;marginBottom=0;" vertex="1" parent="kD1ETYicVpEtqTqWb3Om-8">
          <mxGeometry y="26" width="320" height="300" as="geometry">
            <mxRectangle y="26" width="290" height="26" as="alternateBounds" />
          </mxGeometry>
        </mxCell>
        <mxCell id="kD1ETYicVpEtqTqWb3Om-10" value="+ field: type" style="text;strokeColor=none;fillColor=none;align=left;verticalAlign=top;spacingLeft=4;spacingRight=4;overflow=hidden;rotatable=0;points=[[0,0.5],[1,0.5]];portConstraint=eastwest;" vertex="1" parent="kD1ETYicVpEtqTqWb3Om-9">
          <mxGeometry y="26" width="320" height="74" as="geometry" />
        </mxCell>
        <mxCell id="kD1ETYicVpEtqTqWb3Om-11" value="Только принимает" style="swimlane;fontStyle=0;childLayout=stackLayout;horizontal=1;startSize=26;fillColor=none;horizontalStack=0;resizeParent=1;resizeParentMax=0;resizeLast=0;collapsible=1;marginBottom=0;" vertex="1" parent="kD1ETYicVpEtqTqWb3Om-9">
          <mxGeometry y="100" width="320" height="200" as="geometry" />
        </mxCell>
        <mxCell id="kD1ETYicVpEtqTqWb3Om-12" value="+ field: type" style="text;strokeColor=none;fillColor=none;align=left;verticalAlign=top;spacingLeft=4;spacingRight=4;overflow=hidden;rotatable=0;points=[[0,0.5],[1,0.5]];portConstraint=eastwest;" vertex="1" parent="kD1ETYicVpEtqTqWb3Om-11">
          <mxGeometry y="26" width="320" height="74" as="geometry" />
        </mxCell>
        <mxCell id="kD1ETYicVpEtqTqWb3Om-13" value="Только передает" style="swimlane;fontStyle=0;childLayout=stackLayout;horizontal=1;startSize=26;fillColor=none;horizontalStack=0;resizeParent=1;resizeParentMax=0;resizeLast=0;collapsible=1;marginBottom=0;" vertex="1" parent="kD1ETYicVpEtqTqWb3Om-11">
          <mxGeometry y="100" width="320" height="100" as="geometry" />
        </mxCell>
        <mxCell id="kD1ETYicVpEtqTqWb3Om-14" value="+ field: type" style="text;strokeColor=none;fillColor=none;align=left;verticalAlign=top;spacingLeft=4;spacingRight=4;overflow=hidden;rotatable=0;points=[[0,0.5],[1,0.5]];portConstraint=eastwest;" vertex="1" parent="kD1ETYicVpEtqTqWb3Om-13">
          <mxGeometry y="26" width="320" height="74" as="geometry" />
        </mxCell>
        <mxCell id="kD1ETYicVpEtqTqWb3Om-22" value="1С:Стипендия" style="swimlane;fontStyle=1;align=center;verticalAlign=top;childLayout=stackLayout;horizontal=1;startSize=26;horizontalStack=0;resizeParent=1;resizeParentMax=0;resizeLast=0;collapsible=1;marginBottom=0;fillColor=#CCFFE6;" vertex="1" collapsed="1" parent="1">
          <mxGeometry x="79" y="340" width="321" height="26" as="geometry">
            <mxRectangle x="690" y="340" width="290" height="326" as="alternateBounds" />
          </mxGeometry>
        </mxCell>
        <mxCell id="kD1ETYicVpEtqTqWb3Om-23" value="Двухсторонний обмен" style="swimlane;fontStyle=0;childLayout=stackLayout;horizontal=1;startSize=26;fillColor=none;horizontalStack=0;resizeParent=1;resizeParentMax=0;resizeLast=0;collapsible=1;marginBottom=0;" vertex="1" parent="kD1ETYicVpEtqTqWb3Om-22">
          <mxGeometry y="26" width="321" height="300" as="geometry">
            <mxRectangle y="26" width="290" height="26" as="alternateBounds" />
          </mxGeometry>
        </mxCell>
        <mxCell id="kD1ETYicVpEtqTqWb3Om-24" value="+ field: type" style="text;strokeColor=none;fillColor=none;align=left;verticalAlign=top;spacingLeft=4;spacingRight=4;overflow=hidden;rotatable=0;points=[[0,0.5],[1,0.5]];portConstraint=eastwest;" vertex="1" parent="kD1ETYicVpEtqTqWb3Om-23">
          <mxGeometry y="26" width="321" height="74" as="geometry" />
        </mxCell>
        <mxCell id="kD1ETYicVpEtqTqWb3Om-25" value="Только принимает" style="swimlane;fontStyle=0;childLayout=stackLayout;horizontal=1;startSize=26;fillColor=none;horizontalStack=0;resizeParent=1;resizeParentMax=0;resizeLast=0;collapsible=1;marginBottom=0;" vertex="1" parent="kD1ETYicVpEtqTqWb3Om-23">
          <mxGeometry y="100" width="321" height="200" as="geometry" />
        </mxCell>
        <mxCell id="kD1ETYicVpEtqTqWb3Om-26" value="+ field: type" style="text;strokeColor=none;fillColor=none;align=left;verticalAlign=top;spacingLeft=4;spacingRight=4;overflow=hidden;rotatable=0;points=[[0,0.5],[1,0.5]];portConstraint=eastwest;" vertex="1" parent="kD1ETYicVpEtqTqWb3Om-25">
          <mxGeometry y="26" width="321" height="74" as="geometry" />
        </mxCell>
        <mxCell id="kD1ETYicVpEtqTqWb3Om-27" value="Только передает" style="swimlane;fontStyle=0;childLayout=stackLayout;horizontal=1;startSize=26;fillColor=none;horizontalStack=0;resizeParent=1;resizeParentMax=0;resizeLast=0;collapsible=1;marginBottom=0;" vertex="1" parent="kD1ETYicVpEtqTqWb3Om-25">
          <mxGeometry y="100" width="321" height="100" as="geometry" />
        </mxCell>
        <mxCell id="kD1ETYicVpEtqTqWb3Om-28" value="+ field: type" style="text;strokeColor=none;fillColor=none;align=left;verticalAlign=top;spacingLeft=4;spacingRight=4;overflow=hidden;rotatable=0;points=[[0,0.5],[1,0.5]];portConstraint=eastwest;" vertex="1" parent="kD1ETYicVpEtqTqWb3Om-27">
          <mxGeometry y="26" width="321" height="74" as="geometry" />
        </mxCell>
        <mxCell id="kD1ETYicVpEtqTqWb3Om-29" value="1С: Университет УЗЕЛ" style="swimlane;fontStyle=1;align=center;verticalAlign=top;childLayout=stackLayout;horizontal=1;startSize=26;horizontalStack=0;resizeParent=1;resizeParentMax=0;resizeLast=0;collapsible=1;marginBottom=0;gradientColor=none;fillColor=#FFFFFF;" vertex="1" collapsed="1" parent="1">
          <mxGeometry x="79" y="380" width="321" height="26" as="geometry">
            <mxRectangle x="610" y="150" width="290" height="326" as="alternateBounds" />
          </mxGeometry>
        </mxCell>
        <mxCell id="kD1ETYicVpEtqTqWb3Om-30" value="Двухсторонний обмен" style="swimlane;fontStyle=0;childLayout=stackLayout;horizontal=1;startSize=26;fillColor=none;horizontalStack=0;resizeParent=1;resizeParentMax=0;resizeLast=0;collapsible=1;marginBottom=0;" vertex="1" parent="kD1ETYicVpEtqTqWb3Om-29">
          <mxGeometry y="26" width="321" height="300" as="geometry">
            <mxRectangle y="26" width="290" height="26" as="alternateBounds" />
          </mxGeometry>
        </mxCell>
        <mxCell id="kD1ETYicVpEtqTqWb3Om-31" value="+ field: type" style="text;strokeColor=none;fillColor=none;align=left;verticalAlign=top;spacingLeft=4;spacingRight=4;overflow=hidden;rotatable=0;points=[[0,0.5],[1,0.5]];portConstraint=eastwest;" vertex="1" parent="kD1ETYicVpEtqTqWb3Om-30">
          <mxGeometry y="26" width="321" height="74" as="geometry" />
        </mxCell>
        <mxCell id="kD1ETYicVpEtqTqWb3Om-32" value="Только принимает" style="swimlane;fontStyle=0;childLayout=stackLayout;horizontal=1;startSize=26;fillColor=none;horizontalStack=0;resizeParent=1;resizeParentMax=0;resizeLast=0;collapsible=1;marginBottom=0;" vertex="1" parent="kD1ETYicVpEtqTqWb3Om-30">
          <mxGeometry y="100" width="321" height="200" as="geometry" />
        </mxCell>
        <mxCell id="kD1ETYicVpEtqTqWb3Om-33" value="+ field: type" style="text;strokeColor=none;fillColor=none;align=left;verticalAlign=top;spacingLeft=4;spacingRight=4;overflow=hidden;rotatable=0;points=[[0,0.5],[1,0.5]];portConstraint=eastwest;" vertex="1" parent="kD1ETYicVpEtqTqWb3Om-32">
          <mxGeometry y="26" width="321" height="74" as="geometry" />
        </mxCell>
        <mxCell id="kD1ETYicVpEtqTqWb3Om-34" value="Только передает" style="swimlane;fontStyle=0;childLayout=stackLayout;horizontal=1;startSize=26;fillColor=none;horizontalStack=0;resizeParent=1;resizeParentMax=0;resizeLast=0;collapsible=1;marginBottom=0;" vertex="1" parent="kD1ETYicVpEtqTqWb3Om-32">
          <mxGeometry y="100" width="321" height="100" as="geometry" />
        </mxCell>
        <mxCell id="kD1ETYicVpEtqTqWb3Om-35" value="+ field: type" style="text;strokeColor=none;fillColor=none;align=left;verticalAlign=top;spacingLeft=4;spacingRight=4;overflow=hidden;rotatable=0;points=[[0,0.5],[1,0.5]];portConstraint=eastwest;" vertex="1" parent="kD1ETYicVpEtqTqWb3Om-34">
          <mxGeometry y="26" width="321" height="74" as="geometry" />
        </mxCell>
        <mxCell id="kD1ETYicVpEtqTqWb3Om-36" value="Moodle(moodle.tsutmb.ru)" style="swimlane;fontStyle=1;align=center;verticalAlign=top;childLayout=stackLayout;horizontal=1;startSize=26;horizontalStack=0;resizeParent=1;resizeParentMax=0;resizeLast=0;collapsible=1;marginBottom=0;fillColor=#FFFFFF;gradientColor=none;" vertex="1" collapsed="1" parent="1">
          <mxGeometry x="79" y="420" width="321" height="26" as="geometry">
            <mxRectangle x="269" y="422" width="290" height="326" as="alternateBounds" />
          </mxGeometry>
        </mxCell>
        <mxCell id="kD1ETYicVpEtqTqWb3Om-37" value="Двухсторонний обмен" style="swimlane;fontStyle=0;childLayout=stackLayout;horizontal=1;startSize=26;fillColor=none;horizontalStack=0;resizeParent=1;resizeParentMax=0;resizeLast=0;collapsible=1;marginBottom=0;" vertex="1" parent="kD1ETYicVpEtqTqWb3Om-36">
          <mxGeometry y="26" width="321" height="300" as="geometry">
            <mxRectangle y="26" width="290" height="26" as="alternateBounds" />
          </mxGeometry>
        </mxCell>
        <mxCell id="kD1ETYicVpEtqTqWb3Om-38" value="+ field: type" style="text;strokeColor=none;fillColor=none;align=left;verticalAlign=top;spacingLeft=4;spacingRight=4;overflow=hidden;rotatable=0;points=[[0,0.5],[1,0.5]];portConstraint=eastwest;" vertex="1" parent="kD1ETYicVpEtqTqWb3Om-37">
          <mxGeometry y="26" width="321" height="74" as="geometry" />
        </mxCell>
        <mxCell id="kD1ETYicVpEtqTqWb3Om-39" value="Только принимает" style="swimlane;fontStyle=0;childLayout=stackLayout;horizontal=1;startSize=26;fillColor=none;horizontalStack=0;resizeParent=1;resizeParentMax=0;resizeLast=0;collapsible=1;marginBottom=0;" vertex="1" parent="kD1ETYicVpEtqTqWb3Om-37">
          <mxGeometry y="100" width="321" height="200" as="geometry" />
        </mxCell>
        <mxCell id="kD1ETYicVpEtqTqWb3Om-40" value="+ field: type" style="text;strokeColor=none;fillColor=none;align=left;verticalAlign=top;spacingLeft=4;spacingRight=4;overflow=hidden;rotatable=0;points=[[0,0.5],[1,0.5]];portConstraint=eastwest;" vertex="1" parent="kD1ETYicVpEtqTqWb3Om-39">
          <mxGeometry y="26" width="321" height="74" as="geometry" />
        </mxCell>
        <mxCell id="kD1ETYicVpEtqTqWb3Om-41" value="Только передает" style="swimlane;fontStyle=0;childLayout=stackLayout;horizontal=1;startSize=26;fillColor=none;horizontalStack=0;resizeParent=1;resizeParentMax=0;resizeLast=0;collapsible=1;marginBottom=0;" vertex="1" parent="kD1ETYicVpEtqTqWb3Om-39">
          <mxGeometry y="100" width="321" height="100" as="geometry" />
        </mxCell>
        <mxCell id="kD1ETYicVpEtqTqWb3Om-42" value="+ field: type" style="text;strokeColor=none;fillColor=none;align=left;verticalAlign=top;spacingLeft=4;spacingRight=4;overflow=hidden;rotatable=0;points=[[0,0.5],[1,0.5]];portConstraint=eastwest;" vertex="1" parent="kD1ETYicVpEtqTqWb3Om-41">
          <mxGeometry y="26" width="321" height="74" as="geometry" />
        </mxCell>
        <mxCell id="kD1ETYicVpEtqTqWb3Om-43" value="Moodle(sdo.tsutmb.ru)" style="swimlane;fontStyle=1;align=center;verticalAlign=top;childLayout=stackLayout;horizontal=1;startSize=26;horizontalStack=0;resizeParent=1;resizeParentMax=0;resizeLast=0;collapsible=1;marginBottom=0;fillColor=#FFFFFF;gradientColor=none;" vertex="1" collapsed="1" parent="1">
          <mxGeometry x="79" y="460" width="321" height="26" as="geometry">
            <mxRectangle x="270" y="470" width="290" height="326" as="alternateBounds" />
          </mxGeometry>
        </mxCell>
        <mxCell id="kD1ETYicVpEtqTqWb3Om-44" value="Двухсторонний обмен" style="swimlane;fontStyle=0;childLayout=stackLayout;horizontal=1;startSize=26;fillColor=none;horizontalStack=0;resizeParent=1;resizeParentMax=0;resizeLast=0;collapsible=1;marginBottom=0;" vertex="1" parent="kD1ETYicVpEtqTqWb3Om-43">
          <mxGeometry y="26" width="321" height="300" as="geometry">
            <mxRectangle y="26" width="290" height="26" as="alternateBounds" />
          </mxGeometry>
        </mxCell>
        <mxCell id="kD1ETYicVpEtqTqWb3Om-45" value="+ field: type" style="text;strokeColor=none;fillColor=none;align=left;verticalAlign=top;spacingLeft=4;spacingRight=4;overflow=hidden;rotatable=0;points=[[0,0.5],[1,0.5]];portConstraint=eastwest;" vertex="1" parent="kD1ETYicVpEtqTqWb3Om-44">
          <mxGeometry y="26" width="321" height="74" as="geometry" />
        </mxCell>
        <mxCell id="kD1ETYicVpEtqTqWb3Om-46" value="Только принимает" style="swimlane;fontStyle=0;childLayout=stackLayout;horizontal=1;startSize=26;fillColor=none;horizontalStack=0;resizeParent=1;resizeParentMax=0;resizeLast=0;collapsible=1;marginBottom=0;" vertex="1" parent="kD1ETYicVpEtqTqWb3Om-44">
          <mxGeometry y="100" width="321" height="200" as="geometry" />
        </mxCell>
        <mxCell id="kD1ETYicVpEtqTqWb3Om-47" value="+ field: type" style="text;strokeColor=none;fillColor=none;align=left;verticalAlign=top;spacingLeft=4;spacingRight=4;overflow=hidden;rotatable=0;points=[[0,0.5],[1,0.5]];portConstraint=eastwest;" vertex="1" parent="kD1ETYicVpEtqTqWb3Om-46">
          <mxGeometry y="26" width="321" height="74" as="geometry" />
        </mxCell>
        <mxCell id="kD1ETYicVpEtqTqWb3Om-48" value="Только передает" style="swimlane;fontStyle=0;childLayout=stackLayout;horizontal=1;startSize=26;fillColor=none;horizontalStack=0;resizeParent=1;resizeParentMax=0;resizeLast=0;collapsible=1;marginBottom=0;" vertex="1" parent="kD1ETYicVpEtqTqWb3Om-46">
          <mxGeometry y="100" width="321" height="100" as="geometry" />
        </mxCell>
        <mxCell id="kD1ETYicVpEtqTqWb3Om-49" value="+ field: type" style="text;strokeColor=none;fillColor=none;align=left;verticalAlign=top;spacingLeft=4;spacingRight=4;overflow=hidden;rotatable=0;points=[[0,0.5],[1,0.5]];portConstraint=eastwest;" vertex="1" parent="kD1ETYicVpEtqTqWb3Om-48">
          <mxGeometry y="26" width="321" height="74" as="geometry" />
        </mxCell>
        <mxCell id="kD1ETYicVpEtqTqWb3Om-50" value="Moodle(exam.tsutmb.ru)" style="swimlane;fontStyle=1;align=center;verticalAlign=top;childLayout=stackLayout;horizontal=1;startSize=26;horizontalStack=0;resizeParent=1;resizeParentMax=0;resizeLast=0;collapsible=1;marginBottom=0;fillColor=#FFFFFF;gradientColor=none;" vertex="1" collapsed="1" parent="1">
          <mxGeometry x="81" y="500" width="319" height="26" as="geometry">
            <mxRectangle x="270" y="520" width="290" height="326" as="alternateBounds" />
          </mxGeometry>
        </mxCell>
        <mxCell id="kD1ETYicVpEtqTqWb3Om-51" value="Двухсторонний обмен" style="swimlane;fontStyle=0;childLayout=stackLayout;horizontal=1;startSize=26;fillColor=none;horizontalStack=0;resizeParent=1;resizeParentMax=0;resizeLast=0;collapsible=1;marginBottom=0;" vertex="1" parent="kD1ETYicVpEtqTqWb3Om-50">
          <mxGeometry y="26" width="319" height="300" as="geometry">
            <mxRectangle y="26" width="290" height="26" as="alternateBounds" />
          </mxGeometry>
        </mxCell>
        <mxCell id="kD1ETYicVpEtqTqWb3Om-52" value="+ field: type" style="text;strokeColor=none;fillColor=none;align=left;verticalAlign=top;spacingLeft=4;spacingRight=4;overflow=hidden;rotatable=0;points=[[0,0.5],[1,0.5]];portConstraint=eastwest;" vertex="1" parent="kD1ETYicVpEtqTqWb3Om-51">
          <mxGeometry y="26" width="319" height="74" as="geometry" />
        </mxCell>
        <mxCell id="kD1ETYicVpEtqTqWb3Om-53" value="Только принимает" style="swimlane;fontStyle=0;childLayout=stackLayout;horizontal=1;startSize=26;fillColor=none;horizontalStack=0;resizeParent=1;resizeParentMax=0;resizeLast=0;collapsible=1;marginBottom=0;" vertex="1" parent="kD1ETYicVpEtqTqWb3Om-51">
          <mxGeometry y="100" width="319" height="200" as="geometry" />
        </mxCell>
        <mxCell id="kD1ETYicVpEtqTqWb3Om-54" value="+ field: type" style="text;strokeColor=none;fillColor=none;align=left;verticalAlign=top;spacingLeft=4;spacingRight=4;overflow=hidden;rotatable=0;points=[[0,0.5],[1,0.5]];portConstraint=eastwest;" vertex="1" parent="kD1ETYicVpEtqTqWb3Om-53">
          <mxGeometry y="26" width="319" height="74" as="geometry" />
        </mxCell>
        <mxCell id="kD1ETYicVpEtqTqWb3Om-55" value="Только передает" style="swimlane;fontStyle=0;childLayout=stackLayout;horizontal=1;startSize=26;fillColor=none;horizontalStack=0;resizeParent=1;resizeParentMax=0;resizeLast=0;collapsible=1;marginBottom=0;" vertex="1" parent="kD1ETYicVpEtqTqWb3Om-53">
          <mxGeometry y="100" width="319" height="100" as="geometry" />
        </mxCell>
        <mxCell id="kD1ETYicVpEtqTqWb3Om-56" value="+ field: type" style="text;strokeColor=none;fillColor=none;align=left;verticalAlign=top;spacingLeft=4;spacingRight=4;overflow=hidden;rotatable=0;points=[[0,0.5],[1,0.5]];portConstraint=eastwest;" vertex="1" parent="kD1ETYicVpEtqTqWb3Om-55">
          <mxGeometry y="26" width="319" height="74" as="geometry" />
        </mxCell>
        <mxCell id="kD1ETYicVpEtqTqWb3Om-64" value="Личный кабинет (lk.tsutmb.ru)" style="swimlane;fontStyle=1;align=center;verticalAlign=top;childLayout=stackLayout;horizontal=1;startSize=26;horizontalStack=0;resizeParent=1;resizeParentMax=0;resizeLast=0;collapsible=1;marginBottom=0;fillColor=#FFFFFF;gradientColor=none;" vertex="1" collapsed="1" parent="1">
          <mxGeometry x="79" y="580" width="321" height="26" as="geometry">
            <mxRectangle x="270" y="620" width="290" height="326" as="alternateBounds" />
          </mxGeometry>
        </mxCell>
        <mxCell id="kD1ETYicVpEtqTqWb3Om-65" value="Двухсторонний обмен" style="swimlane;fontStyle=0;childLayout=stackLayout;horizontal=1;startSize=26;fillColor=none;horizontalStack=0;resizeParent=1;resizeParentMax=0;resizeLast=0;collapsible=1;marginBottom=0;" vertex="1" parent="kD1ETYicVpEtqTqWb3Om-64">
          <mxGeometry y="26" width="321" height="300" as="geometry">
            <mxRectangle y="26" width="290" height="26" as="alternateBounds" />
          </mxGeometry>
        </mxCell>
        <mxCell id="kD1ETYicVpEtqTqWb3Om-66" value="+ field: type" style="text;strokeColor=none;fillColor=none;align=left;verticalAlign=top;spacingLeft=4;spacingRight=4;overflow=hidden;rotatable=0;points=[[0,0.5],[1,0.5]];portConstraint=eastwest;" vertex="1" parent="kD1ETYicVpEtqTqWb3Om-65">
          <mxGeometry y="26" width="321" height="74" as="geometry" />
        </mxCell>
        <mxCell id="kD1ETYicVpEtqTqWb3Om-67" value="Только принимает" style="swimlane;fontStyle=0;childLayout=stackLayout;horizontal=1;startSize=26;fillColor=none;horizontalStack=0;resizeParent=1;resizeParentMax=0;resizeLast=0;collapsible=1;marginBottom=0;" vertex="1" parent="kD1ETYicVpEtqTqWb3Om-65">
          <mxGeometry y="100" width="321" height="200" as="geometry" />
        </mxCell>
        <mxCell id="kD1ETYicVpEtqTqWb3Om-68" value="+ field: type" style="text;strokeColor=none;fillColor=none;align=left;verticalAlign=top;spacingLeft=4;spacingRight=4;overflow=hidden;rotatable=0;points=[[0,0.5],[1,0.5]];portConstraint=eastwest;" vertex="1" parent="kD1ETYicVpEtqTqWb3Om-67">
          <mxGeometry y="26" width="321" height="74" as="geometry" />
        </mxCell>
        <mxCell id="kD1ETYicVpEtqTqWb3Om-69" value="Только передает" style="swimlane;fontStyle=0;childLayout=stackLayout;horizontal=1;startSize=26;fillColor=none;horizontalStack=0;resizeParent=1;resizeParentMax=0;resizeLast=0;collapsible=1;marginBottom=0;" vertex="1" parent="kD1ETYicVpEtqTqWb3Om-67">
          <mxGeometry y="100" width="321" height="100" as="geometry" />
        </mxCell>
        <mxCell id="kD1ETYicVpEtqTqWb3Om-70" value="+ field: type" style="text;strokeColor=none;fillColor=none;align=left;verticalAlign=top;spacingLeft=4;spacingRight=4;overflow=hidden;rotatable=0;points=[[0,0.5],[1,0.5]];portConstraint=eastwest;" vertex="1" parent="kD1ETYicVpEtqTqWb3Om-69">
          <mxGeometry y="26" width="321" height="74" as="geometry" />
        </mxCell>
        <mxCell id="kD1ETYicVpEtqTqWb3Om-78" value="Приложения" style="swimlane;fontStyle=1;align=center;verticalAlign=top;childLayout=stackLayout;horizontal=1;startSize=26;horizontalStack=0;resizeParent=1;resizeParentMax=0;resizeLast=0;collapsible=1;marginBottom=0;fillColor=#FFFFFF;gradientColor=none;" vertex="1" collapsed="1" parent="1">
          <mxGeometry x="81" y="700" width="319" height="26" as="geometry">
            <mxRectangle x="270" y="760" width="290" height="326" as="alternateBounds" />
          </mxGeometry>
        </mxCell>
        <mxCell id="kD1ETYicVpEtqTqWb3Om-79" value="Двухсторонний обмен" style="swimlane;fontStyle=0;childLayout=stackLayout;horizontal=1;startSize=26;fillColor=none;horizontalStack=0;resizeParent=1;resizeParentMax=0;resizeLast=0;collapsible=1;marginBottom=0;" vertex="1" parent="kD1ETYicVpEtqTqWb3Om-78">
          <mxGeometry y="26" width="319" height="300" as="geometry">
            <mxRectangle y="26" width="290" height="26" as="alternateBounds" />
          </mxGeometry>
        </mxCell>
        <mxCell id="kD1ETYicVpEtqTqWb3Om-80" value="+ field: type" style="text;strokeColor=none;fillColor=none;align=left;verticalAlign=top;spacingLeft=4;spacingRight=4;overflow=hidden;rotatable=0;points=[[0,0.5],[1,0.5]];portConstraint=eastwest;" vertex="1" parent="kD1ETYicVpEtqTqWb3Om-79">
          <mxGeometry y="26" width="319" height="74" as="geometry" />
        </mxCell>
        <mxCell id="kD1ETYicVpEtqTqWb3Om-81" value="Только принимает" style="swimlane;fontStyle=0;childLayout=stackLayout;horizontal=1;startSize=26;fillColor=none;horizontalStack=0;resizeParent=1;resizeParentMax=0;resizeLast=0;collapsible=1;marginBottom=0;" vertex="1" parent="kD1ETYicVpEtqTqWb3Om-79">
          <mxGeometry y="100" width="319" height="200" as="geometry" />
        </mxCell>
        <mxCell id="kD1ETYicVpEtqTqWb3Om-82" value="+ field: type" style="text;strokeColor=none;fillColor=none;align=left;verticalAlign=top;spacingLeft=4;spacingRight=4;overflow=hidden;rotatable=0;points=[[0,0.5],[1,0.5]];portConstraint=eastwest;" vertex="1" parent="kD1ETYicVpEtqTqWb3Om-81">
          <mxGeometry y="26" width="319" height="74" as="geometry" />
        </mxCell>
        <mxCell id="kD1ETYicVpEtqTqWb3Om-83" value="Только передает" style="swimlane;fontStyle=0;childLayout=stackLayout;horizontal=1;startSize=26;fillColor=none;horizontalStack=0;resizeParent=1;resizeParentMax=0;resizeLast=0;collapsible=1;marginBottom=0;" vertex="1" parent="kD1ETYicVpEtqTqWb3Om-81">
          <mxGeometry y="100" width="319" height="100" as="geometry" />
        </mxCell>
        <mxCell id="kD1ETYicVpEtqTqWb3Om-84" value="+ field: type" style="text;strokeColor=none;fillColor=none;align=left;verticalAlign=top;spacingLeft=4;spacingRight=4;overflow=hidden;rotatable=0;points=[[0,0.5],[1,0.5]];portConstraint=eastwest;" vertex="1" parent="kD1ETYicVpEtqTqWb3Om-83">
          <mxGeometry y="26" width="319" height="74" as="geometry" />
        </mxCell>
        <mxCell id="kD1ETYicVpEtqTqWb3Om-85" value="Руслан" style="swimlane;fontStyle=1;align=center;verticalAlign=top;childLayout=stackLayout;horizontal=1;startSize=26;horizontalStack=0;resizeParent=1;resizeParentMax=0;resizeLast=0;collapsible=1;marginBottom=0;fillColor=#FFFFFF;gradientColor=none;" vertex="1" collapsed="1" parent="1">
          <mxGeometry x="81" y="740" width="319" height="26" as="geometry">
            <mxRectangle x="270" y="810" width="290" height="326" as="alternateBounds" />
          </mxGeometry>
        </mxCell>
        <mxCell id="kD1ETYicVpEtqTqWb3Om-86" value="Двухсторонний обмен" style="swimlane;fontStyle=0;childLayout=stackLayout;horizontal=1;startSize=26;fillColor=none;horizontalStack=0;resizeParent=1;resizeParentMax=0;resizeLast=0;collapsible=1;marginBottom=0;" vertex="1" parent="kD1ETYicVpEtqTqWb3Om-85">
          <mxGeometry y="26" width="319" height="300" as="geometry">
            <mxRectangle y="26" width="290" height="26" as="alternateBounds" />
          </mxGeometry>
        </mxCell>
        <mxCell id="kD1ETYicVpEtqTqWb3Om-87" value="+ field: type" style="text;strokeColor=none;fillColor=none;align=left;verticalAlign=top;spacingLeft=4;spacingRight=4;overflow=hidden;rotatable=0;points=[[0,0.5],[1,0.5]];portConstraint=eastwest;" vertex="1" parent="kD1ETYicVpEtqTqWb3Om-86">
          <mxGeometry y="26" width="319" height="74" as="geometry" />
        </mxCell>
        <mxCell id="kD1ETYicVpEtqTqWb3Om-88" value="Только принимает" style="swimlane;fontStyle=0;childLayout=stackLayout;horizontal=1;startSize=26;fillColor=none;horizontalStack=0;resizeParent=1;resizeParentMax=0;resizeLast=0;collapsible=1;marginBottom=0;" vertex="1" parent="kD1ETYicVpEtqTqWb3Om-86">
          <mxGeometry y="100" width="319" height="200" as="geometry" />
        </mxCell>
        <mxCell id="kD1ETYicVpEtqTqWb3Om-89" value="+ field: type" style="text;strokeColor=none;fillColor=none;align=left;verticalAlign=top;spacingLeft=4;spacingRight=4;overflow=hidden;rotatable=0;points=[[0,0.5],[1,0.5]];portConstraint=eastwest;" vertex="1" parent="kD1ETYicVpEtqTqWb3Om-88">
          <mxGeometry y="26" width="319" height="74" as="geometry" />
        </mxCell>
        <mxCell id="kD1ETYicVpEtqTqWb3Om-90" value="Только передает" style="swimlane;fontStyle=0;childLayout=stackLayout;horizontal=1;startSize=26;fillColor=none;horizontalStack=0;resizeParent=1;resizeParentMax=0;resizeLast=0;collapsible=1;marginBottom=0;" vertex="1" parent="kD1ETYicVpEtqTqWb3Om-88">
          <mxGeometry y="100" width="319" height="100" as="geometry" />
        </mxCell>
        <mxCell id="kD1ETYicVpEtqTqWb3Om-91" value="+ field: type" style="text;strokeColor=none;fillColor=none;align=left;verticalAlign=top;spacingLeft=4;spacingRight=4;overflow=hidden;rotatable=0;points=[[0,0.5],[1,0.5]];portConstraint=eastwest;" vertex="1" parent="kD1ETYicVpEtqTqWb3Om-90">
          <mxGeometry y="26" width="319" height="74" as="geometry" />
        </mxCell>
      </root>
    </mxGraphModel>
  </diagram>
</mxfile>
